<svg width="284" height="235" viewBox="0 0 284 235" fill="none" xmlns="http://www.w3.org/2000/svg">
<path d="M35.0486 62.2425C34.5993 53.4811 33.8062 44.4746 33.0114 36.5438C32.4445 30.8865 33.3433 26.6353 34.247 22.9558C35.1071 19.4538 38.2073 15.4095 41.2673 11.2144C42.4739 9.56014 43.2041 9.04101 46.3033 10.6051C55.3106 15.1507 61.4757 20.7058 63.1742 22.8553C66.0164 28.8614 67.6094 36.1217 68.6288 42.4783C68.8586 43.7428 68.9709 44.3044 69.0866 45.5638" stroke="#1C1C1C" stroke-width="9" stroke-linecap="round"/>
<path d="M50.3658 29.9064C50.0288 32.3775 49.6918 34.8487 49.5182 36.7957C49.3446 38.7427 49.3446 40.0906 49.4008 41.2342C49.4569 42.3779 49.5692 43.2765 50.0253 45.5639" stroke="#1C1C1C" stroke-width="9" stroke-linecap="round"/>
<path d="M146.353 40.7985C158.709 22.6018 166.871 11.5428 170.942 8.09135C173.138 6.22932 175.912 4.52757 177.974 4.50034C181.817 4.44961 183.672 10.1438 185.315 14.6113C187.199 25.2295 186.749 32.6055 185.788 36.4603C185.275 37.9563 184.714 38.5179 183.454 39.437" stroke="#1C1C1C" stroke-width="9" stroke-linecap="round"/>
<path d="M170.86 40.7985C172.882 34.9576 174.485 30.4884 175.505 27.9951C175.963 26.9621 176.3 26.4004 176.473 25.8303C176.647 25.2601 176.647 24.6985 176.647 24.1199" stroke="#1C1C1C" stroke-width="9" stroke-linecap="round"/>
<path d="M72.1501 48.6273C72.1501 48.515 72.1501 48.4026 78.3842 46.4352C84.6183 44.4678 97.0864 40.6488 104.97 38.6814C115.773 36.714 121.253 37.1633 126.514 38.4057C129.303 39.1988 132.336 40.322 135.461 41.8197" stroke="#1C1C1C" stroke-width="9" stroke-linecap="round"/>
<path d="M30.6237 76.5385C30.3991 76.5385 26.2397 82.8287 18.2033 97.077C13.8293 104.832 10.3916 114.47 8.08719 120.904C5.78282 127.337 5.10887 130.482 4.76168 136.034C4.41449 141.585 4.41449 149.448 4.75147 154.734C5.24915 162.541 7.80468 168.519 10.4647 174.919C12.6749 180.235 15.4088 183.632 18.7394 187.695C21.0133 190.468 24.2042 194.902 27.2302 198.619C30.2561 202.336 32.9519 205.257 36.4187 208.446C39.8855 211.635 44.0416 215.005 49.2153 218.089C54.3891 221.173 60.4547 223.869 64.8711 225.594C69.2876 227.32 71.871 227.994 75.8977 228.734C79.9244 229.475 85.3161 230.261 98.4275 230.441C111.539 230.622 132.207 230.173 144.932 229.492C157.657 228.811 161.813 227.912 164.516 227.393C168.324 226.662 172.756 225.523 179.882 222.698C183.811 221.14 188.131 218.749 191.904 216.3C195.678 213.851 198.71 211.268 201.789 208.084C204.868 204.899 207.901 201.193 212.103 194.172C216.305 187.152 221.584 176.93 225.034 169.699C228.483 162.467 229.944 158.536 231.595 152.636C233.245 146.735 235.043 138.985 236.081 133.925C237.119 128.865 237.344 126.731 237.459 122.374C237.575 118.017 237.575 111.502 237.238 107.023C236.728 100.241 233.511 93.3771 229.83 85.3884C227.264 79.8195 223.977 75.8781 218.728 70.4559C215.302 66.9166 209.773 62.3378 205.31 58.8404C197.478 53.2088 192.434 50.2237 189.77 48.9762C188.679 48.515 188.118 48.4026 187.199 47.9465" stroke="#1C1C1C" stroke-width="9" stroke-linecap="round"/>
<path d="M230.767 73.475C230.992 66.5108 231.217 59.5466 232.793 53.0947C234.369 46.6428 237.289 40.9142 239.467 36.9522C242.814 30.8659 246.18 26.8633 250.475 22.6766C255.605 17.6771 260.033 15.8384 261.391 15.949C262.955 16.0763 265.803 21.356 270.668 30.9087C273.416 36.302 275.759 43.2696 277.314 48.7651C278.87 54.2605 279.319 58.1919 279.438 62.5199C279.557 66.8478 279.333 71.4531 278.206 76.0159C277.08 80.5787 275.058 84.9594 272.837 89.238C268.46 97.669 263.805 103.973 259.056 108.893C253.258 114.902 249.039 118.061 248.358 118.123C248.127 117.847 248.127 116.948 248.183 116.092C248.239 115.236 248.351 114.45 248.467 113.64" stroke="#1C1C1C" stroke-width="9" stroke-linecap="round"/>
<path d="M242.34 51.3503C252.545 51.4627 256.384 52.5893 259.688 53.6156C260.595 53.9543 261.83 54.5159 262.692 54.9737C263.553 55.4315 264.002 55.7685 265.486 56.7964" stroke="#1C1C1C" stroke-width="9" stroke-linecap="round"/>
<path d="M236.894 63.2637C241.836 66.8581 248.763 71.2932 256.131 75.8816C259.118 77.8864 260.578 79.2343 261.555 80.0972C262.532 80.96 262.981 81.297 263.444 81.9846" stroke="#1C1C1C" stroke-width="9" stroke-linecap="round"/>
<path d="M82.3614 76.5385C79.6452 74.9524 74.9071 74.4963 66.11 76.0211C62.1975 76.6993 58.7799 80.1534 56.6117 84.2941C55.6047 86.2172 55.8117 87.9923 56.0926 89.4611C56.5249 91.7225 58.1876 93.7754 59.4896 95.3054C61.3607 97.5043 71.8368 97.751 82.3342 95.8381C87.3773 94.9191 89.3801 90.2831 93.8033 87.2707C97.1956 84.9605 100.048 85.3884 110.792 86.8555C116.542 87.6406 122.38 89.3539 128.663 90.2048C131.676 90.6127 134.385 90.4941 136.279 89.9887C139.446 89.1437 140.675 86.5321 141.468 84.8336C143.109 81.3193 142.949 75.8782 142.667 72.0132C142.425 68.7086 140.914 64.6388 138.252 62.0809C134.332 58.3139 125.154 58.9545 117.473 59.6812C104.135 60.9432 95.0746 63.9445 93.999 64.1691C90.7454 64.8487 88.1615 69.6084 84.5875 70.7486C81.6922 71.6724 78.5219 72.7875 74.0391 74.2069C70.4009 75.3589 67.2894 75.742 64.1051 75.9139C62.8481 75.9818 61.0434 76.5351 59.1151 77.3827C57.804 77.959 58.1944 80.2725 58.3629 82.1412C58.5077 83.7476 59.4402 84.9289 60.1176 85.9483C60.8806 87.0967 63.8481 87.2026 66.8537 86.9797C67.9967 86.8949 68.1744 85.8581 68.0093 84.8915C67.6368 82.7104 65.9176 81.1949 64.3893 80.5142C63.6793 80.1979 62.9733 80.2827 61.8399 81.1251C58.8681 83.3339 57.0644 86.1747 56.3836 87.703C56.0673 88.413 56.1521 89.119 56.5453 89.6347C59.1491 93.05 70.843 89.2619 75.2645 86.5338C75.9843 86.0897 75.5538 84.7281 75.3291 83.9827C75.1045 83.2372 74.6552 82.7879 73.8059 83.1181C71.4372 84.039 70.1111 86.6274 69.8252 88.3821C69.6873 89.2285 70.3256 90.0244 71.4556 90.4295C77.6463 92.6484 84.1518 87.9004 86.2724 85.5671C86.7084 85.0874 86.446 84.1562 86.1652 83.5827C84.2544 79.6801 72.9874 80.2827 67.5157 81.9744C66.1007 82.4119 64.8046 83.8907 63.9962 84.9187C63.1878 85.9466 63.0755 86.8452 63.2422 87.5328C64.5375 92.8724 81.7487 86.5389 86.6042 83.358C89.6226 81.3807 91.0819 78.4787 95.7877 76.0382C97.0385 75.3895 97.9985 74.4009 98.5754 73.6572C99.1524 72.9135 99.2647 72.3518 98.8171 72.0064C97.607 71.0723 95.1938 71.5451 93.211 71.94C92.3237 72.1167 91.79 72.6718 91.4445 73.4649C91.099 74.258 90.9866 75.3812 91.3781 76.1845C91.7695 76.9878 92.6681 77.4371 93.468 77.6686C96.9679 78.6813 101.858 75.0749 104.197 72.7467C104.686 72.2599 104.486 71.4464 103.925 71.0431C103.363 70.6397 102.24 70.5274 101.155 70.9188C100.071 71.3103 99.0605 72.2089 98.4835 73.1211C97.9066 74.0333 97.7943 74.9319 98.0172 75.6757C98.2402 76.4194 98.8018 76.981 100.495 77.2142C104.956 77.8284 111.484 75.9837 116.987 73.7746C118.974 72.9766 119.007 72.1272 119.008 71.4992C119.01 70.8712 118.898 70.3096 118.559 69.7956C116.967 67.3786 112.335 67.464 107.284 68.1379C106.153 68.2889 105.521 68.9276 105.061 69.5522C104.132 70.8152 104.146 73.1211 104.37 75.3319C104.461 76.2189 105.044 76.5317 105.669 76.7615C112.077 79.1185 124.541 75.0749 127.625 72.4642C128.211 71.9685 127.972 71.1061 127.467 70.6465C126.961 70.187 125.951 69.9624 124.98 70.0713C123.042 70.2889 121.287 71.8787 119.757 73.407C119.068 74.0956 118.789 74.823 118.84 75.3387C118.891 75.8544 119.34 76.1913 120.695 75.9718C124.386 75.3736 127.285 73.5942 128.474 72.5186C129.429 71.6559 129.787 70.5308 129.788 69.4552C129.789 68.9295 129.341 68.4919 128.774 68.2043C125.312 66.4473 120.831 67.9133 120.147 68.4783C119.884 68.6952 120.811 69.268 121.551 69.4995C123.025 69.9602 124.674 69.5063 125.922 68.8851C126.466 68.6139 126.495 67.9269 126.384 67.4129C126.274 66.899 125.937 66.4497 125.426 66.162C124.916 65.8744 124.242 65.7621 123.67 66.0412C123.098 66.3203 122.649 66.9942 122.417 67.6223C122.186 68.2503 122.186 68.8119 122.354 69.3259C122.693 70.3596 123.993 71.3137 124.848 72.3893C128.289 76.7222 111.413 76.3071 110.337 77.6056C109.704 78.3701 109.374 79.6904 109.48 80.4954C109.585 81.3004 110.259 81.6374 111.055 81.8672C114.68 82.9126 121.349 82.9989 126.145 84.306C127.649 84.7161 128.987 85.048 130.232 84.6549C133.525 83.6158 132.622 71.9638 132.622 66.8411C132.622 66.5013 133.854 67.2257 134.429 67.738C136.441 69.5294 136.25 73.3458 136.313 79.2394C136.327 80.5151 135.808 81.0656 135.185 81.4111C133.796 82.1817 132.064 81.9846 130.818 81.8161C129.689 81.6634 128.66 80.6265 128.088 79.8351C130.576 77.7911 133.514 75.9803 135.682 74.6681C136.026 74.7175 136.25 75.2791 136.482 75.8578" stroke="#1C1C1C" stroke-width="9" stroke-linecap="round"/>
<path d="M69.427 89.1326C69.2023 84.8642 69.5359 81.8791 70.6098 80.1823C71.8846 78.168 73.5048 76.77 74.8629 76.0892C75.5086 75.7655 76.221 75.8577 76.849 76.5317C78.0386 78.5535 78.7296 80.9532 79.0121 82.7658C79.1823 83.5674 79.4069 84.129 79.9788 85.048" stroke="white" stroke-width="3" stroke-linecap="round"/>
<path d="M116.059 76.5385C117.86 71.334 122.846 67.0214 125.637 65.9884C126.234 65.7674 126.938 65.762 127.397 66.0973C128.874 68.8152 130.239 71.0856 130.636 72.4437C130.808 73.1278 130.92 73.8018 131.376 75.5173" stroke="white" stroke-width="3" stroke-linecap="round"/>
<path d="M103.805 103.429C103.914 102.979 105.388 101.73 105.958 101.219C105.967 101.046 105.405 101.046 104.554 101.214C103.703 101.383 102.58 101.72 100.061 102.748" stroke="#1C1C1C" stroke-width="9" stroke-linecap="round"/>
</svg>
